<?xml version="1.0" encoding="UTF-8"?>
<svg id="a" data-name="Layer 1" xmlns="http://www.w3.org/2000/svg" width="64" height="64" viewBox="0 0 64 64">
  <rect width="64" height="64" rx="8" ry="8" fill="#18181b"/>
  <g>
    <path d="M43.62,16.64l-6.02-1.16.65,4.66,4.59-.5.38,8.68s-13.13-9.95-25.96-13.36c-3.36-1.24-4.91,2.4-4.64,4.3-.83,29.66,16.96,39.73,16.96,39.73-10.91-11.8,3.68-31.66,9.1-25.96,5.43,5.7,12.74,2.92,12.74,2.92l-7.8-19.31Z" fill="#e8e8e8"/>
    <path d="M28.95,18.36c2.16.99,7.31-2.57,8.9-5.1,1.59-2.53.64-5.86-2.11-7.44-2.75-1.58-6.27-.81-7.86,1.73-1.59,2.53-1.09,9.83,1.07,10.82Z" fill="#e8e8e8"/>
  </g>
</svg>